# xmcd
#
# Track frame offsets:
# 150
# 16027
# 27672
# 42927
# 55352
# 69557
# 82162
# 93612
# 106287
# 118347
#
# Disc length: 1712 seconds
#
#
# Revision: 0
# Processed by: cddbd v1.5.1PL0 Copyright (c) Steve Scherf et al.
# Submitted via: FreeRIP 2.942 
#
DISCID=8a06ae0a
DTITLE=Banda El Recodo - Asi Es Mexico: La Banda (Bandisima Vol. 2)
DYEAR=1900
DGENRE=Folklore
TTITLE0=La Culebra
TTITLE1=El Gallito
TTITLE2=El Pato Juan
TTITLE3=El Burro De Don Sebastian
TTITLE4=El Caballo Bayo
TTITLE5=El Palomino
TTITLE6=El Guaco
TTITLE7=La Chiva Renga
TTITLE8=El Alazan Y El Rosillo
TTITLE9=El Toro Viejo
EXTD=
EXTT0=
EXTT1=
EXTT2=
EXTT3=
EXTT4=
EXTT5=
EXTT6=
EXTT7=
EXTT8=
EXTT9=
PLAYORDER=
